<?xml version="1.0" encoding="utf-8"?>
<!-- Generator: Adobe Illustrator 19.2.1, SVG Export Plug-In . SVG Version: 6.00 Build 0)  -->
<svg version="1.1" id="Layer_1" xmlns="http://www.w3.org/2000/svg" xmlns:xlink="http://www.w3.org/1999/xlink" x="0px" y="0px"
	 width="735.1px" height="724.7px" viewBox="0 0 735.1 724.7" enable-background="new 0 0 735.1 724.7" xml:space="preserve">
<path fill="none" d="M331.9,474c-13.2,0-25.6,0-38,0c-2.6,0-3.3-2.1-4.4-3.6c-17.6-24-35.2-48.1-52.8-72.1
	c-4.2-5.8-8.4-11.5-12.8-17.4c-17.9,23.4-35.5,46.4-53.1,69.4C144.8,484,119,517.9,93,551.6c-2.4,3.1-2.2,4.9,0.1,7.9
	c50.8,67,117.1,110.3,198.9,129.1c73.1,16.8,144.6,10.4,213-20.1c91.9-41,155.9-109.2,186.4-205.4c32.8-103.3,17.7-201.1-43.9-290.3
	c-50-72.4-119.2-118.2-205.1-137.2C353.5,15.8,269.1,29.2,191,76.2C118.4,119.8,68.7,182.5,42.8,263.4
	c-14.8,46.3-18.5,93.6-12.4,141.7c3.7,28.8,11.2,56.8,22.7,83.6c0.6,1.4,1.7,2.9,0.3,4.6c-5.9,7.6-11.7,15.2-17.8,23.3
	c-7.4-15.1-13.3-30.1-18.3-45.4c-15.7-48.6-20.8-98.3-14.9-149c8.4-72.8,36.6-137.2,84.1-193c35.9-42.2,79.2-74.5,129.7-97.1
	c41.1-18.4,84.2-28.9,129.3-31.5c47.8-2.8,94.4,3.1,139.8,18.4c62.8,21,116.2,56.5,160,106.2c41.7,47.3,69.9,101.8,82.1,163.7
	c21.4,108.2-1.4,206.8-69,294.2c-48.9,63.2-112.7,105.2-189.5,127.3c-45.2,13-91.3,17.5-138,12.2
	c-117.7-13.2-209.4-69.4-274.7-168.3c-1.8-2.8-1.6-4.4,0.3-6.9c37.7-49.1,75.3-98.3,112.9-147.5c10-13.1,19.9-26.3,30.1-39.2
	c2-2.5,2.1-4.1,0.2-6.8c-23.7-32.6-47.2-65.3-70.8-97.9c-1.7-2.4-3.4-4.8-5.6-7.9c13.5,0,26.3,0.1,39,0c2.4,0,3.1,1.6,4.1,3.1
	c18.4,25.7,36.8,51.4,55.3,77.1c1.5,2.2,3.2,4.3,5.1,6.9c7.3-9.9,14.3-19.5,21.4-29.2c13.2-18.2,26.5-36.3,39.6-54.5
	c1.7-2.3,3.4-3.5,6.5-3.5c11.5,0.2,23,0.1,34.5,0.1c0.4,2.5-1.7,3.6-2.8,5.1c-24.8,33.4-49.7,66.8-74.7,100c-2.3,3-2,4.8,0,7.7
	c26.4,36.8,52.6,73.7,78.8,110.6C330.6,472,331,472.7,331.9,474z"/>
<path fill="none" d="M394,437.4c0,18.2,0,35.3,0,52.5c0,21.8-0.1,43.7,0.1,65.5c0,4.1-1.2,5-5,4.9c-8.8-0.3-17.7-0.2-26.5,0
	c-3.1,0.1-4.3-0.6-4.3-4.1c0.1-101.3,0.1-202.6,0-303.9c0-3.1,0.6-4.4,4.1-4.3c8.8,0.2,17.7,0.2,26.5,0c3.3-0.1,3.9,1.2,3.9,4.1
	c-0.1,9.3-0.1,18.7,0,28c0,1.6-0.5,3.3,0.7,5.2c28.2-34,64.2-50,108.2-46.2c31.3,2.7,57.4,16.5,78.2,39.8
	c44.3,49.9,40.8,125.3-6.8,171.6C524.6,497.5,440.2,496.1,394,437.4z M573.6,361.5c0.3-50.2-40.1-91.8-89.5-91.6
	c-51,0.1-88.7,40.6-90.7,87c-2.3,52.1,38.9,95.2,90.3,95.4C533.9,452.4,573.3,412.6,573.6,361.5z"/>
</svg>
